<svg id="logo" xmlns="http://www.w3.org/2000/svg" viewBox="0 0 143.16 28.16"><defs><style>.cls-1{fill:#fff;}.cls-2{fill:#e84344;}</style></defs><title>hanniel-logo-wide</title><g id="logo-2" data-name="logo"><path id="u" class="cls-1" d="M143,8.93V21.8H135.6a2.86,2.86,0,0,1-2.86-2.86v-10h2.58v9.15a1.15,1.15,0,0,0,1.14,1.15h4V8.93Z"/><path id="h-2" class="cls-1" d="M130.17,11.79v10H127.6V12.65a1.14,1.14,0,0,0-1.15-1.14h-4V21.8h-2.57V6.36h2.57V8.93h4.86A2.86,2.86,0,0,1,130.17,11.79Z"/><path id="l" class="cls-1" d="M114.73,19.23V21.8h-4.86A2.86,2.86,0,0,1,107,18.94v-10h2.57v9.15a1.16,1.16,0,0,0,1.15,1.15Z"/><path id="e" class="cls-1" d="M101.58,16.65h.29a2.86,2.86,0,0,0,2.57-2.85V8.93H97l-.29,0a2.86,2.86,0,0,0-2.57,2.84v7.15a2.86,2.86,0,0,0,2.57,2.84l.29,0h7.43V19.23H97.86a1.15,1.15,0,0,1-1.14-1.15V16.65Zm-4.86-4a1.14,1.14,0,0,1,1.14-1.14h4v1.43a1.15,1.15,0,0,1-1.15,1.14h-4Z"/><rect id="i" class="cls-1" x="89" y="8.93" width="2.57" height="12.87"/><path id="n-2" class="cls-1" d="M86.43,11.79v10H83.85V12.65a1.14,1.14,0,0,0-1.14-1.14h-4V21.8H76.13V8.93h7.44A2.86,2.86,0,0,1,86.43,11.79Z"/><path id="n-1" class="cls-1" d="M73.56,11.79v10H71V12.65a1.14,1.14,0,0,0-1.15-1.14h-4V21.8H63.27V8.93H70.7A2.86,2.86,0,0,1,73.56,11.79Z"/><path id="a" class="cls-1" d="M53.26,8.93a2.86,2.86,0,0,0-2.86,2.86v10H53V16.65h5.14V21.8h2.57V8.93ZM53,14.08V12.65a1.14,1.14,0,0,1,1.14-1.14h4v2.57Z"/><path id="h-1" class="cls-1" d="M47.83,11.79v10H45.26V12.65a1.15,1.15,0,0,0-1.15-1.14h-4V21.8H37.54V6.36h2.57V8.93H45A2.86,2.86,0,0,1,47.83,11.79Z"/></g><g id="mark"><path id="h-l" class="cls-2" d="M22.35,19.22v8.94h-4v-7.6a1.79,1.79,0,0,0-1.79-1.79H4v9.39H0V0H4V14.75H17.88A4.47,4.47,0,0,1,22.35,19.22Z"/><path id="h-r" class="cls-2" d="M28.16,0V28.16h-4V13.41H10.28A4.47,4.47,0,0,1,5.81,8.94V0h4V7.6a1.79,1.79,0,0,0,1.79,1.79H24.14V0Z"/></g></svg>